# xmcd
#
# Track frame offsets:
#	150
#	24375
#	60325
#	82562
#	108462
#	117962
#	141615
#	177260
#	208150
#	232100
#
# Disc length: 3902 seconds
#
# Revision: 1
# Processed by: cddbd v1.4PL0 Copyright (c) Steve Scherf et al.
# Submitted via: audiograbber 1.81.02
#
DISCID=840f3c0a
DTITLE=Stevie Ray Vaughan - Accolades - Disk 2
DYEAR=1900
DGENRE=
TTITLE0=I'm So Glad I Won't Be Lonely Anymore
TTITLE1=Texas Flood
TTITLE2=Pride And Joy
TTITLE3=Hideaway
TTITLE4=Scuttle Buttin
TTITLE5=Couldnt Stand The Weather
TTITLE6=Texas Flood
TTITLE7=The Things I Used To Do
TTITLE8=The Crawl
TTITLE9=Little Wing - Third Rock From The Sun
EXTD=
EXTT0=
EXTT1=
EXTT2=
EXTT3=
EXTT4=
EXTT5=
EXTT6=
EXTT7=
EXTT8=
EXTT9=
PLAYORDER=
